<mxfile host="app.diagrams.net" modified="2024-01-15T05:59:57.947Z" agent="Mozilla/5.0 (Windows NT 10.0; Win64; x64) AppleWebKit/537.36 (KHTML, like Gecko) Chrome/120.0.0.0 Safari/537.36" etag="zWTAZts6kWJac_eBAaUO" version="22.1.18" type="github">
  <diagram name="Page-1" id="RFG91nqQHrq2rCqh5LNW">
    <mxGraphModel dx="1434" dy="746" grid="1" gridSize="10" guides="1" tooltips="1" connect="1" arrows="1" fold="1" page="1" pageScale="1" pageWidth="827" pageHeight="1169" math="0" shadow="0">
      <root>
        <mxCell id="0" />
        <mxCell id="1" parent="0" />
        <mxCell id="hU0FTpct08kERLUiqEbZ-2" value="" style="rounded=0;whiteSpace=wrap;html=1;" vertex="1" parent="1">
          <mxGeometry x="60" y="210" width="550" height="250" as="geometry" />
        </mxCell>
        <mxCell id="hU0FTpct08kERLUiqEbZ-5" value="" style="edgeStyle=orthogonalEdgeStyle;rounded=0;orthogonalLoop=1;jettySize=auto;html=1;" edge="1" parent="1" source="hU0FTpct08kERLUiqEbZ-3" target="hU0FTpct08kERLUiqEbZ-4">
          <mxGeometry relative="1" as="geometry" />
        </mxCell>
        <mxCell id="hU0FTpct08kERLUiqEbZ-3" value="Логистика " style="rounded=1;whiteSpace=wrap;html=1;" vertex="1" parent="1">
          <mxGeometry x="90" y="250" width="120" height="60" as="geometry" />
        </mxCell>
        <mxCell id="hU0FTpct08kERLUiqEbZ-11" value="" style="edgeStyle=orthogonalEdgeStyle;rounded=0;orthogonalLoop=1;jettySize=auto;html=1;" edge="1" parent="1" source="hU0FTpct08kERLUiqEbZ-4" target="hU0FTpct08kERLUiqEbZ-6">
          <mxGeometry relative="1" as="geometry" />
        </mxCell>
        <mxCell id="hU0FTpct08kERLUiqEbZ-4" value="Стратегия " style="rounded=1;whiteSpace=wrap;html=1;" vertex="1" parent="1">
          <mxGeometry x="280" y="250" width="120" height="60" as="geometry" />
        </mxCell>
        <mxCell id="hU0FTpct08kERLUiqEbZ-12" value="" style="edgeStyle=orthogonalEdgeStyle;rounded=0;orthogonalLoop=1;jettySize=auto;html=1;" edge="1" parent="1" source="hU0FTpct08kERLUiqEbZ-6" target="hU0FTpct08kERLUiqEbZ-8">
          <mxGeometry relative="1" as="geometry" />
        </mxCell>
        <mxCell id="hU0FTpct08kERLUiqEbZ-6" value="Планиране " style="rounded=1;whiteSpace=wrap;html=1;" vertex="1" parent="1">
          <mxGeometry x="460" y="250" width="120" height="60" as="geometry" />
        </mxCell>
        <mxCell id="hU0FTpct08kERLUiqEbZ-13" value="" style="edgeStyle=orthogonalEdgeStyle;rounded=0;orthogonalLoop=1;jettySize=auto;html=1;" edge="1" parent="1" source="hU0FTpct08kERLUiqEbZ-8" target="hU0FTpct08kERLUiqEbZ-9">
          <mxGeometry relative="1" as="geometry" />
        </mxCell>
        <mxCell id="hU0FTpct08kERLUiqEbZ-8" value="Управление на активи" style="rounded=1;whiteSpace=wrap;html=1;" vertex="1" parent="1">
          <mxGeometry x="460" y="360" width="120" height="60" as="geometry" />
        </mxCell>
        <mxCell id="hU0FTpct08kERLUiqEbZ-14" value="" style="edgeStyle=orthogonalEdgeStyle;rounded=0;orthogonalLoop=1;jettySize=auto;html=1;" edge="1" parent="1" source="hU0FTpct08kERLUiqEbZ-9" target="hU0FTpct08kERLUiqEbZ-10">
          <mxGeometry relative="1" as="geometry" />
        </mxCell>
        <mxCell id="hU0FTpct08kERLUiqEbZ-9" value="Управление на жизнения цикъл " style="rounded=1;whiteSpace=wrap;html=1;" vertex="1" parent="1">
          <mxGeometry x="280" y="360" width="120" height="60" as="geometry" />
        </mxCell>
        <mxCell id="hU0FTpct08kERLUiqEbZ-15" value="" style="edgeStyle=orthogonalEdgeStyle;rounded=0;orthogonalLoop=1;jettySize=auto;html=1;" edge="1" parent="1" source="hU0FTpct08kERLUiqEbZ-10" target="hU0FTpct08kERLUiqEbZ-3">
          <mxGeometry relative="1" as="geometry" />
        </mxCell>
        <mxCell id="hU0FTpct08kERLUiqEbZ-10" value="Закупуване " style="rounded=1;whiteSpace=wrap;html=1;" vertex="1" parent="1">
          <mxGeometry x="90" y="360" width="120" height="60" as="geometry" />
        </mxCell>
      </root>
    </mxGraphModel>
  </diagram>
</mxfile>
